<svg preserveAspectRatio="xMidYMid meet" width="100%" height="100%" overflow="visible" style="display: block;" viewBox="0 0 20.6916 19.8528" fill="none" xmlns="http://www.w3.org/2000/svg">
<g id="Group">
<path id="Vector" d="M10.3455 11.8527C10.0803 11.8527 9.8259 11.7474 9.63837 11.5599C9.45083 11.3723 9.34547 11.118 9.34547 10.8527V7.85275C9.34547 7.58753 9.45083 7.33318 9.63837 7.14564C9.8259 6.95811 10.0803 6.85275 10.3455 6.85275C10.6107 6.85275 10.865 6.95811 11.0526 7.14564C11.2401 7.33318 11.3455 7.58753 11.3455 7.85275V10.8527C11.3455 11.118 11.2401 11.3723 11.0526 11.5599C10.865 11.7474 10.6107 11.8527 10.3455 11.8527ZM8.84547 14.3527C8.84547 13.9549 9.00351 13.5734 9.28481 13.2921C9.56612 13.0108 9.94765 12.8527 10.3455 12.8527C10.7433 12.8527 11.1248 13.0108 11.4061 13.2921C11.6874 13.5734 11.8455 13.9549 11.8455 14.3527C11.8455 14.7506 11.6874 15.1321 11.4061 15.4134C11.1248 15.6947 10.7433 15.8527 10.3455 15.8527C9.94765 15.8527 9.56612 15.6947 9.28481 15.4134C9.00351 15.1321 8.84547 14.7506 8.84547 14.3527Z" fill="var(--fill-0, #5C5C5C)"/>
<path id="Vector_2" d="M8.57547 1.06875C9.32547 -0.35625 11.3655 -0.35625 12.1155 1.06875L20.4585 16.9208C21.1595 18.2528 20.1955 19.8528 18.6885 19.8528H2.00247C0.497474 19.8528 -0.467526 18.2528 0.232474 16.9218L8.57547 1.06875ZM18.6895 17.8528L10.3455 1.99975L2.00147 17.8528H18.6895Z" fill="var(--fill-0, #5C5C5C)"/>
</g>
</svg>
