<svg preserveAspectRatio="xMidYMid meet" width="100%" height="100%" overflow="visible" style="display: block;" viewBox="0 0 18 20.814" fill="none" xmlns="http://www.w3.org/2000/svg">
<g id="Group">
<g id="Vector">
</g>
<path id="Vector_2" d="M14 0C14.5304 0 15.0391 0.210714 15.4142 0.585786C15.7893 0.960859 16 1.46957 16 2V16H17C17.2652 16 17.5196 16.1054 17.7071 16.2929C17.8946 16.4804 18 16.7348 18 17C18 17.2652 17.8946 17.5196 17.7071 17.7071C17.5196 17.8946 17.2652 18 17 18H1C0.734784 18 0.48043 17.8946 0.292893 17.7071C0.105357 17.5196 0 17.2652 0 17C0 16.7348 0.105357 16.4804 0.292893 16.2929C0.48043 16.1054 0.734784 16 1 16H2V2C2 1.46957 2.21071 0.960859 2.58579 0.585786C2.96086 0.210714 3.46957 0 4 0H14ZM14 2H4V16H14V2ZM11.5 8C11.697 8 11.892 8.0388 12.074 8.11418C12.256 8.18956 12.4214 8.30005 12.5607 8.43934C12.6999 8.57863 12.8104 8.74399 12.8858 8.92597C12.9612 9.10796 13 9.30302 13 9.5C13 9.69698 12.9612 9.89204 12.8858 10.074C12.8104 10.256 12.6999 10.4214 12.5607 10.5607C12.4214 10.6999 12.256 10.8104 12.074 10.8858C11.892 10.9612 11.697 11 11.5 11C11.1022 11 10.7206 10.842 10.4393 10.5607C10.158 10.2794 10 9.89782 10 9.5C10 9.10218 10.158 8.72064 10.4393 8.43934C10.7206 8.15804 11.1022 8 11.5 8Z" fill="var(--fill-0, #5C5C5C)"/>
</g>
</svg>
