<svg preserveAspectRatio="xMidYMid meet" width="100%" height="100%" overflow="visible" style="display: block;" viewBox="0 0 20 12" fill="none" xmlns="http://www.w3.org/2000/svg">
<path id="Vector" d="M15 0C15.7956 0 16.5587 0.316071 17.1213 0.87868C17.6839 1.44129 18 2.20435 18 3V4H19C19.2652 4 19.5196 4.10536 19.7071 4.29289C19.8946 4.48043 20 4.73478 20 5V7C20 7.26522 19.8946 7.51957 19.7071 7.70711C19.5196 7.89464 19.2652 8 19 8H18V9C18 9.79565 17.6839 10.5587 17.1213 11.1213C16.5587 11.6839 15.7956 12 15 12H3C2.20435 12 1.44129 11.6839 0.87868 11.1213C0.316071 10.5587 0 9.79565 0 9V3C0 2.20435 0.316071 1.44129 0.87868 0.87868C1.44129 0.316071 2.20435 0 3 0H15ZM14.998 1.5H3C2.62712 1.50002 2.26761 1.63892 1.99158 1.88962C1.71555 2.14032 1.5428 2.48484 1.507 2.856L1.5 3V9C1.49999 9.37273 1.63876 9.7321 1.88925 10.0081C2.13974 10.2841 2.48402 10.457 2.855 10.493L3 10.5H14.998C15.3707 10.5 15.7301 10.3612 16.0061 10.1108C16.2821 9.86026 16.455 9.51598 16.491 9.145L16.498 9V3C16.498 2.62727 16.3592 2.2679 16.1088 1.99189C15.8583 1.71589 15.514 1.54303 15.143 1.507L14.998 1.5ZM4 3H13C13.2449 3.00003 13.4813 3.08996 13.6644 3.25272C13.8474 3.41547 13.9643 3.63975 13.993 3.883L14 4V8C14 8.24493 13.91 8.48134 13.7473 8.66437C13.5845 8.84741 13.3603 8.96434 13.117 8.993L13 9H4C3.75489 9.00021 3.51825 8.9104 3.335 8.74762C3.15176 8.58483 3.03468 8.36042 3.006 8.117L3 8V4C3.00003 3.75507 3.08996 3.51866 3.25272 3.33563C3.41547 3.15259 3.63975 3.03566 3.883 3.007L4 3Z" fill="var(--fill-0, #A6A5A5)"/>
</svg>
