<svg width="134.615" height="122.39" viewBox="0 0 134.615 122.39" fill="none" xmlns="http://www.w3.org/2000/svg" preserveAspectRatio="xMidYMid meet">
  <!-- Part 5: Center top piece -->
  <svg x="59.72" y="0" width="14.838" height="56.517" viewBox="0 0 14.8384 56.5174" overflow="visible">
    <g transform="translate(0, 56.5174) scale(1, -1)">
      <path d="M0 0V52.345H0.0241667V52.3687H0.0725002V52.3924H0.120834V52.4161H0.145V52.4398H0.193334V52.4635H0.241667V52.4872H0.290001V52.5109H0.314167V52.5346H0.362501V52.5583H0.410834V52.582H0.459168V52.6057H0.483334V52.6295H0.531668V52.6532H0.580001V52.6769H0.604168V52.7006H0.652501V52.7243H0.700835V52.748H0.749168V52.7717H0.773335V52.7954H0.821669V52.8191H0.870002V52.8428H0.918335V52.8665H0.942502V52.8902H0.990836V52.9139H1.03917V52.9376H1.0875V52.9614H1.11167V52.9851H1.16V53.0088H1.20834V53.0325H1.2325V53.0562H1.28084V53.0799H1.32917V53.1036H1.3775V53.1273H1.40167V53.151H1.45V53.1747H1.49834V53.1984H1.54667V53.2221H1.57084V53.2458H1.61917V53.2695H1.6675V53.2932H1.71584V53.317H1.74V53.3407H1.78834V53.3644H1.83667V53.3881H1.86084V53.4118H1.90917V53.4355H1.9575V53.4592H2.00584V53.4829H2.03V53.5066H2.07834V53.5303H2.12667V53.554H2.175V53.5777H2.19917V53.6014H2.24751V53.6251H2.29584V53.6489H2.34417V53.6726H2.36834V53.6963H2.41667V53.72H2.46501V53.7437H2.48917V53.7674H2.53751V53.7911H2.58584V53.8148H2.63417V53.8385H2.65834V53.8622H2.70667V53.8859H2.75501V53.9096H2.80334V53.9333H2.82751V53.957H2.87584V53.9808H2.92417V54.0045H2.94834V54.0282H2.99667V54.0519H3.04501V54.0756H3.09334V54.0993H3.11751V54.123H3.16584V54.1467H3.21417V54.1704H3.26251V54.1941H3.28667V54.2178H3.33501V54.2415H3.38334V54.2652H3.43167V54.2889H3.45584V54.3126H3.50417V54.3364H3.55251V54.3601H3.57667V54.3838H3.62501V54.4075H3.67334V54.4312H3.72168V54.4549H3.74584V54.4786H3.79418V54.5023H3.84251V54.526H3.89084V54.5497H3.91501V54.5734H3.96334V54.5971H4.01168V54.6208H4.06001V54.6445H4.08418V54.6683H4.13251V54.692H4.18084V54.7157H4.20501V54.7394H4.25334V54.7631H4.30168V54.7868H4.35001V54.8105H4.37418V54.8342H4.42251V54.8579H4.47084V54.8816H4.51918V54.9053H4.54334V54.929H4.59168V54.9527H4.64001V54.9764H4.68834V55.0002H4.71251V55.0239H4.76084V55.0476H4.80918V55.0713H4.83334V55.095H4.88168V55.1187H4.93001V55.1424H4.97834V55.1661H5.00251V55.1898H5.05084V55.2135H5.09918V55.2372H5.14751V55.2609H5.17168V55.2846H5.22001V55.3083H5.26835V55.332H5.29251V55.3558H5.34085V55.3795H5.38918V55.4032H5.43751V55.4269H5.46168V55.4506H5.51001V55.4743H5.55835V55.498H5.60668V55.5217H5.63085V55.5454H5.67918V55.5691H5.72751V55.5928H5.77585V55.6165H5.80001V55.6402H5.84835V55.6639H5.89668V55.6877H5.92085V55.7114H5.96918V55.7351H6.01751V55.7588H6.06585V55.7825H6.09001V55.8062H6.13835V55.8299H6.18668V55.8536H6.23501V55.8773H6.25918V55.901H6.30751V55.9247H6.35585V55.9484H6.40418V55.9721H6.42835V55.9958H6.47668V56.0195H6.52501V56.0433H6.54918V56.067H6.59752V56.0907H6.64585V56.1144H6.69418V56.1381H6.71835V56.1618H6.76668V56.1855H6.81502V56.2092H6.86335V56.2329H6.88752V56.2566H6.93585V56.2803H6.98418V56.304H7.03252V56.3277H7.05668V56.3514H7.10502V56.3752H7.15335V56.3989H7.17752V56.4226H7.22585V56.4463H7.27418V56.47H7.32252V56.4937H7.34668V56.5174H7.49168V56.4937H7.54002V56.47H7.58835V56.4463H7.61252V56.4226H7.66085V56.3989H7.70918V56.3752H7.75752V56.3514H7.78168V56.3277H7.83002V56.304H7.87835V56.2803H7.90252V56.2566H7.95085V56.2329H7.99918V56.2092H8.04752V56.1855H8.07169V56.1618H8.12002V56.1381H8.16835V56.1144H8.21669V56.0907H8.24085V56.067H8.28919V56.0433H8.33752V56.0195H8.38585V55.9958H8.41002V55.9721H8.45835V55.9484H8.50669V55.9247H8.53085V55.901H8.57919V55.8773H8.62752V55.8536H8.67585V55.8299H8.70002V55.8062H8.74835V55.7825H8.79669V55.7588H8.84502V55.7351H8.86919V55.7114H8.91752V55.6877H8.96585V55.6639H9.01419V55.6402H9.03835V55.6165H9.08669V55.5928H9.13502V55.5691H9.15919V55.5454H9.20752V55.5217H9.25585V55.498H9.30419V55.4743H9.32835V55.4506H9.37669V55.4269H9.42502V55.4032H9.47335V55.3795H9.49752V55.3558H9.54586V55.332H9.59419V55.3083H9.64252V55.2846H9.66669V55.2609H9.71502V55.2372H9.76336V55.2135H9.78752V55.1898H9.83586V55.1661H9.88419V55.1424H9.93252V55.1187H9.95669V55.095H10.005V55.0713H10.0534V55.0476H10.1017V55.0239H10.1259V55.0002H10.1742V54.9764H10.2225V54.9527H10.2467V54.929H10.295V54.9053H10.3434V54.8816H10.3917V54.8579H10.4159V54.8342H10.4642V54.8105H10.5125V54.7868H10.5609V54.7631H10.585V54.7394H10.6334V54.7157H10.6817V54.692H10.73V54.6683H10.7542V54.6445H10.8025V54.6208H10.8509V54.5971H10.875V54.5734H10.9234V54.5497H10.9717V54.526H11.02V54.5023H11.0442V54.4786H11.0925V54.4549H11.1409V54.4312H11.1892V54.4075H11.2134V54.3838H11.2617V54.3601H11.31V54.3364H11.3584V54.3126H11.3825V54.2889H11.4309V54.2652H11.4792V54.2415H11.5034V54.2178H11.5517V54.1941H11.6V54.1704H11.6484V54.1467H11.6725V54.123H11.7209V54.0993H11.7692V54.0756H11.8175V54.0519H11.8417V54.0282H11.89V54.0045H11.9384V53.9808H11.9625V53.957H12.0109V53.9333H12.0592V53.9096H12.1075V53.8859H12.1317V53.8622H12.18V53.8385H12.2284V53.8148H12.2767V53.7911H12.3009V53.7674H12.3492V53.7437H12.3975V53.72H12.4459V53.6963H12.47V53.6726H12.5184V53.6489H12.5667V53.6251H12.5909V53.6014H12.6392V53.5777H12.6875V53.554H12.7359V53.5303H12.76V53.5066H12.8084V53.4829H12.8567V53.4592H12.905V53.4355H12.9292V53.4118H12.9775V53.3881H13.0259V53.3644H13.0742V53.3407H13.0984V53.317H13.1467V53.2932H13.195V53.2695H13.2192V53.2458H13.2675V53.2221H13.3159V53.1984H13.3642V53.1747H13.3884V53.151H13.4367V53.1273H13.485V53.1036H13.5334V53.0799H13.5575V53.0562H13.6059V53.0325H13.6542V53.0088H13.7025V52.9851H13.7267V52.9614H13.775V52.9376H13.8234V52.9139H13.8475V52.8902H13.8959V52.8665H13.9442V52.8428H13.9925V52.8191H14.0167V52.7954H14.065V52.7717H14.1134V52.748H14.1617V52.7243H14.1859V52.7006H14.2342V52.6769H14.2825V52.6532H14.3067V52.6295H14.355V52.6057H14.4034V52.582H14.4517V52.5583H14.4759V52.5346H14.5242V52.5109H14.5725V52.4872H14.6209V52.4635H14.645V52.4398H14.6934V52.4161H14.7417V52.3924H14.79V52.3687H14.8142V52.345H14.8384V0H14.5484V0.023707H13.8959V0.0474139H13.195V0.0711209H12.5184V0.0948278H11.8175V0.118535H11.0684V0.142242H10.9717V12.2802H10.9234V12.3039H10.8992V12.3276H10.8509V12.3513H10.8025V12.375H10.7542V12.3987H10.73V12.4224H10.6817V12.4462H10.6334V12.4699H10.6092V12.4936H10.5609V12.5173H10.5125V12.541H10.4642V12.5647H10.44V12.5884H10.3917V12.6121H10.3434V12.6358H10.295V12.6595H10.2709V12.6832H10.2225V12.7069H10.1742V12.7306H10.1259V12.7543H10.1017V12.7781H10.0534V12.8018H10.005V12.8255H9.98086V12.8492H9.93252V12.8729H9.88419V12.8966H9.83586V12.9203H9.81169V12.944H9.76336V12.9677H9.71502V12.9914H9.66669V13.0151H9.64252V13.0388H9.59419V13.0625H9.54586V13.0862H9.49752V13.1099H9.47335V13.1337H9.42502V13.1574H9.37669V13.1811H9.35252V13.2048H9.30419V13.2285H9.25585V13.2522H9.20752V13.2759H9.18335V13.2996H9.13502V13.3233H9.08669V13.347H9.03835V13.3707H9.01419V13.3944H8.96585V13.4181H8.91752V13.4418H8.89335V13.4656H8.84502V13.4893H8.79669V13.513H8.74835V13.5367H8.72419V13.5604H8.67585V13.5841H8.62752V13.6078H8.57919V13.6315H8.55502V13.6552H8.50669V13.6789H8.45835V13.7026H8.41002V13.7263H8.38585V13.75H8.33752V13.7737H8.28919V13.7975H8.26502V13.8212H8.21669V13.8449H8.16835V13.8686H8.12002V13.8923H8.09585V13.916H8.04752V13.9397H7.99918V13.9634H7.95085V13.9871H7.92668V14.0108H7.87835V14.0345H7.83002V14.0582H7.78168V14.0819H7.75752V14.1056H7.70918V14.1293H7.66085V14.1531H7.63668V14.1768H7.58835V14.2005H7.54002V14.2242H7.49168V14.2479H7.46752V14.2716H7.39502V14.2479H7.34668V14.2242H7.29835V14.2005H7.27418V14.1768H7.22585V14.1531H7.17752V14.1293H7.15335V14.1056H7.10502V14.0819H7.05668V14.0582H7.00835V14.0345H6.98418V14.0108H6.93585V13.9871H6.88752V13.9634H6.83918V13.9397H6.81502V13.916H6.76668V13.8923H6.71835V13.8686H6.67002V13.8449H6.64585V13.8212H6.59752V13.7975H6.54918V13.7737H6.52501V13.75H6.47668V13.7263H6.42835V13.7026H6.38001V13.6789H6.35585V13.6552H6.30751V13.6315H6.25918V13.6078H6.21085V13.5841H6.18668V13.5604H6.13835V13.5367H6.09001V13.513H6.04168V13.4893H6.01751V13.4656H5.96918V13.4418H5.92085V13.4181H5.89668V13.3944H5.84835V13.3707H5.80001V13.347H5.75168V13.3233H5.72751V13.2996H5.67918V13.2759H5.63085V13.2522H5.58251V13.2285H5.55835V13.2048H5.51001V13.1811H5.46168V13.1574H5.41335V13.1337H5.38918V13.1099H5.34085V13.0862H5.29251V13.0625H5.26835V13.0388H5.22001V13.0151H5.17168V12.9914H5.12335V12.9677H5.09918V12.944H5.05084V12.9203H5.00251V12.8966H4.95418V12.8729H4.93001V12.8492H4.88168V12.8255H4.83334V12.8018H4.80918V12.7781H4.76084V12.7543H4.71251V12.7306H4.66418V12.7069H4.64001V12.6832H4.59168V12.6595H4.54334V12.6358H4.49501V12.6121H4.47084V12.5884H4.42251V12.5647H4.37418V12.541H4.32584V12.5173H4.30168V12.4936H4.25334V12.4699H4.20501V12.4462H4.18084V12.4224H4.13251V12.3987H4.08418V12.375H4.03584V12.3513H4.01168V12.3276H3.96334V12.3039H3.91501V12.2802H3.89084V0.142242H3.79418V0.118535H3.02084V0.0948278H2.34417V0.0711209H1.64334V0.0474139H0.966669V0.023707H0.290001V0" fill="url(#grad5)"/>
    </g>
    <defs>
      <linearGradient id="grad5" x1="7.42547" y1="-41.2731" x2="7.42547" y2="25.9629" gradientUnits="userSpaceOnUse">
        <stop offset="0.125" stop-color="#FBEFD5"/>
        <stop offset="1" stop-color="#0056B1"/>
      </linearGradient>
    </defs>
  </svg>
  <!-- Part 1: Left pillar -->
  <svg x="40.79" y="19.26" width="7.295" height="47.804" viewBox="0 0 7.29545 47.8041" overflow="visible">
    <g transform="translate(0, 47.8041) scale(1, -1)">
      <path d="M7.29545 47.8041L0 43.6723V0C2.38912 0.421273 4.8244 0.783745 7.29545 1.08933V47.8041Z" fill="url(#grad1)"/>
    </g>
    <defs>
      <linearGradient id="grad1" x1="3.64772" y1="-39.2104" x2="3.64772" y2="28.0259" gradientUnits="userSpaceOnUse">
        <stop stop-color="#FBEFD5"/>
        <stop offset="1" stop-color="#0056B1"/>
      </linearGradient>
    </defs>
  </svg>
  <!-- Part 3: Left inner pillar -->
  <svg x="51.14" y="10.57" width="5.546" height="51.235" viewBox="0 0 5.54578 51.2355" overflow="visible">
    <g transform="translate(0, 51.2355) scale(1, -1)">
      <path d="M0 0C1.8316 0.18847 3.68083 0.345637 5.54578 0.46915V51.2355L0 48.0945V0Z" fill="url(#grad3)"/>
    </g>
    <defs>
      <linearGradient id="grad3" x1="2.77289" y1="-40.6439" x2="2.77289" y2="26.5923" gradientUnits="userSpaceOnUse">
        <stop offset="0.322115" stop-color="#FBEFD5"/>
        <stop offset="1" stop-color="#0056B1"/>
      </linearGradient>
    </defs>
  </svg>
  <!-- Part 2: Right inner pillar -->
  <svg x="77.58" y="10.57" width="5.546" height="51.235" viewBox="0 0 5.54578 51.2355" overflow="visible">
    <g transform="translate(0, 51.2355) scale(1, -1)">
      <path d="M0 0.46915C1.86495 0.345637 3.71418 0.18847 5.54578 0V48.0945L0 51.2355V0.46915Z" fill="url(#grad2)"/>
    </g>
    <defs>
      <linearGradient id="grad2" x1="2.77289" y1="-40.6439" x2="2.77289" y2="26.5923" gradientUnits="userSpaceOnUse">
        <stop offset="0.322115" stop-color="#FBEFD5"/>
        <stop offset="1" stop-color="#0056B1"/>
      </linearGradient>
    </defs>
  </svg>
  <!-- Part 4: Right pillar -->
  <svg x="86.17" y="19.26" width="7.295" height="47.804" viewBox="0 0 7.29545 47.8041" overflow="visible">
    <g transform="translate(0, 47.8041) scale(1, -1)">
      <path d="M0 47.8041V1.08933C2.47105 0.783745 4.90632 0.421273 7.29545 0V43.6723L0 47.8041Z" fill="url(#grad4)"/>
    </g>
    <defs>
      <linearGradient id="grad4" x1="3.64772" y1="-39.2101" x2="3.64772" y2="28.0257" gradientUnits="userSpaceOnUse">
        <stop stop-color="#FBEFD5"/>
        <stop offset="1" stop-color="#0056B1"/>
      </linearGradient>
    </defs>
  </svg>
  <!-- Part 0: Base curve -->
  <svg x="0" y="106.84" width="134.615" height="15.55" viewBox="0 0 134.615 15.5499" overflow="visible">
    <g transform="translate(0, 15.5499) scale(1, -1)">
      <path d="M67.3077 11.8682C93.4575 11.8682 117.186 7.3475 134.615 0C118.687 9.49037 94.4522 15.5499 67.3077 15.5499C40.1632 15.5499 15.928 9.49037 0 0C17.429 7.3475 41.1579 11.8682 67.3077 11.8682Z" fill="url(#grad0)"/>
    </g>
    <defs>
      <linearGradient id="grad0" x1="67.3077" y1="-29.023" x2="67.3077" y2="47.908" gradientUnits="userSpaceOnUse">
        <stop stop-color="#FBEFD5"/>
        <stop offset="0.658654" stop-color="#0056B1"/>
      </linearGradient>
    </defs>
  </svg>
</svg>
