<svg preserveAspectRatio="xMidYMid meet" width="100%" height="100%" overflow="visible" style="display: block;" viewBox="0 0 375 75" fill="none" xmlns="http://www.w3.org/2000/svg">
<path id="Tab bar" d="M339 0C358.882 0 375 16.1177 375 36V74C375 74.5523 374.552 75 374 75H1C0.447715 75 1.30864e-08 74.5523 0 74V36C7.73159e-07 16.1178 16.1178 7.62869e-07 36 0H108.161C108.436 0 108.654 0.225076 108.654 0.5C108.654 18.1731 122.981 32.5 140.654 32.5C158.327 32.5 172.654 18.1731 172.654 0.5C172.654 0.225076 172.873 0 173.148 0H339Z" fill="var(--fill-0, #DCDCDC)"/>
</svg>
