<svg preserveAspectRatio="xMidYMid meet" width="100%" height="100%" overflow="visible" style="display: block;" viewBox="0 0 375 75" fill="none" xmlns="http://www.w3.org/2000/svg">
<path id="Tab bar" d="M339 0C358.882 0 375 16.1177 375 36V74C375 74.5523 374.552 75 374 75H1C0.447715 75 1.30864e-08 74.5523 0 74V36C7.73159e-07 16.1178 16.1178 7.62869e-07 36 0H194.017C194.565 0 195 0.452643 195 1C195 18.6731 209.327 33 227 33C244.673 33 259 18.6731 259 1C259 0.452643 259.435 0 259.983 0H339Z" fill="var(--fill-0, #DCDCDC)"/>
</svg>
